<svg width="326" height="77" viewBox="0 0 326 77" fill="none" xmlns="http://www.w3.org/2000/svg">
<path d="M0 0.866211H4.66662V76.9321H0V0.866211Z" fill="white"/>
<path d="M6.99993 0.866211H11.6666V76.9321H6.99993V0.866211Z" fill="white"/>
<path d="M13.9999 0.866211H25.1998V76.9321H13.9999V0.866211Z" fill="white"/>
<path d="M27.5331 0.866211H34.533V76.9321H27.5331V0.866211Z" fill="white"/>
<path d="M45.7329 0.866211H48.0662V76.9321H45.7329V0.866211Z" fill="white"/>
<path d="M54.5995 0.866211H59.2661V76.9321H54.5995V0.866211Z" fill="white"/>
<path d="M61.5994 0.866211H66.266V76.9321H61.5994V0.866211Z" fill="white"/>
<path d="M72.7993 0.866211H82.1325V76.9321H72.7993V0.866211Z" fill="white"/>
<path d="M86.7992 0.866211H96.1324V76.9321H86.7992V0.866211Z" fill="white"/>
<path d="M100.332 0.866211H106.866V76.9321H100.332V0.866211Z" fill="white"/>
<path d="M109.666 0.866211H113.866V76.9321H109.666V0.866211Z" fill="white"/>
<path d="M127.399 0.866211H130.199V76.9321H127.399V0.866211Z" fill="white"/>
<path d="M134.399 0.866211H147.932V76.9321H134.399V0.866211Z" fill="white"/>
<path d="M150.265 0.866211H154.932V76.9321H150.265V0.866211Z" fill="white"/>
<path d="M157.265 0.866211H161.932V76.9321H157.265V0.866211Z" fill="white"/>
<path d="M164.265 0.866211H168.932V76.9321H164.265V0.866211Z" fill="white"/>
<path d="M171.265 0.866211H175.932V76.9321H171.265V0.866211Z" fill="white"/>
<path d="M178.265 0.866211H188.998V76.9321H178.265V0.866211Z" fill="white"/>
<path d="M195.531 0.866211H202.998V76.9321H195.531V0.866211Z" fill="white"/>
<path d="M205.331 0.866211H212.798V76.9321H205.331V0.866211Z" fill="white"/>
<path d="M219.331 0.866211H223.531V76.9321H219.331V0.866211Z" fill="white"/>
<path d="M225.864 0.866211H230.064V76.9321H225.864V0.866211Z" fill="white"/>
<path d="M244.064 0.866211H252.931V76.9321H244.064V0.866211Z" fill="white"/>
<path d="M259.931 0.866211H264.597V76.9321H259.931V0.866211Z" fill="white"/>
<path d="M266.931 0.866211H277.664V76.9321H266.931V0.866211Z" fill="white"/>
<path d="M279.997 0.866211H285.131V76.9321H279.997V0.866211Z" fill="white"/>
<path d="M291.664 0.866211H294.464V76.9321H291.664V0.866211Z" fill="white"/>
<path d="M298.197 0.866211H307.53V76.9321H298.197V0.866211Z" fill="white"/>
<path d="M314.53 0.866211H318.73V76.9321H314.53V0.866211Z" fill="white"/>
<path d="M321.064 0.866211H325.264V76.9321H321.064V0.866211Z" fill="white"/>
</svg>
