<svg width="400" height="243" viewBox="0 0 400 243" fill="none" xmlns="http://www.w3.org/2000/svg">
<mask id="mask0" mask-type="alpha" maskUnits="userSpaceOnUse" x="0" y="0" width="400" height="243">
<rect width="400" height="243" rx="10" fill="#1C4576"/>
</mask>
<g mask="url(#mask0)">
<path d="M221.385 236.312C223.96 237.274 226.535 238.236 229.11 239.2C229.11 237.8 229.11 236.398 229.11 234.998C226.535 234.04 223.96 233.081 221.385 232.118C221.385 233.516 221.385 234.914 221.385 236.312Z" fill="#B27434"/>
<path d="M229.11 239.2C255.15 248.933 281.188 258.667 307.228 268.401C307.228 266.898 307.228 265.395 307.228 263.892C281.188 254.22 255.15 244.689 229.11 234.998C229.11 236.398 229.11 237.8 229.11 239.2Z" fill="#B27434"/>
<path d="M307.228 268.401C311.373 269.95 315.519 271.501 319.665 273.051C319.665 271.541 319.665 270.032 319.665 268.523C315.519 266.976 311.373 265.432 307.228 263.892C307.228 265.395 307.228 266.898 307.228 268.401Z" fill="#B27434"/>
<path d="M221.385 232.118C223.96 233.081 226.535 234.04 229.11 234.998C229.11 197.954 229.11 160.352 229.11 123.307C226.535 122.585 223.96 121.862 221.385 121.14C221.385 158.133 221.385 195.126 221.385 232.118Z" fill="#B27434"/>
<path d="M229.11 234.998C255.15 244.689 281.188 254.22 307.228 263.892C307.228 224.104 307.228 185.012 307.228 145.224C281.188 137.919 255.15 130.612 229.11 123.307C229.11 160.352 229.11 197.954 229.11 234.998Z" fill="#B27434"/>
<path d="M307.228 263.892C311.373 265.432 315.519 266.976 319.665 268.523C319.665 228.588 319.665 188.65 319.665 148.713C315.519 147.55 311.373 146.388 307.228 145.224C307.228 185.012 307.228 224.104 307.228 263.892Z" fill="#B27434"/>
<path d="M319.666 273.41C320.623 273.052 321.58 272.695 322.537 272.337C322.537 271.039 322.537 269.741 322.537 268.443C321.58 268.8 320.623 269.157 319.666 269.515C319.666 270.812 319.666 272.111 319.666 273.41Z" fill="#D99251"/>
<path d="M322.537 272.337C323.891 271.829 325.246 271.323 326.601 270.817C326.601 269.519 326.601 268.222 326.601 266.926C325.246 267.43 323.891 267.937 322.537 268.443C322.537 269.741 322.537 271.039 322.537 272.337Z" fill="#D99251"/>
<path d="M326.601 270.817C357.049 259.435 387.497 248.053 417.945 236.671C417.945 235.468 417.945 234.264 417.945 233.062C387.497 244.436 357.049 255.573 326.601 266.926C326.601 268.222 326.601 269.519 326.601 270.817Z" fill="#D99251"/>
<path d="M319.666 269.515C319.666 247.426 319.666 225.338 319.666 203.249C320.144 203.096 320.623 202.944 321.101 202.792C321.101 224.847 321.101 246.896 321.101 268.979C320.623 269.157 320.144 269.336 319.666 269.515Z" fill="#D99251"/>
<path d="M321.101 268.979C321.58 268.8 322.058 268.622 322.537 268.443C322.537 257.405 322.537 246.383 322.537 235.368C322.058 235.534 321.58 235.704 321.101 235.875C321.101 246.904 321.101 257.937 321.101 268.979Z" fill="#D99251"/>
<path d="M321.101 235.875C321.58 235.704 322.058 235.534 322.537 235.368C322.537 224.353 322.537 213.345 322.537 202.335C322.058 202.489 321.58 202.641 321.101 202.792C321.101 213.82 321.101 224.845 321.101 235.875Z" fill="#D99251"/>
<path d="M322.537 268.443C323.214 268.19 323.891 267.937 324.569 267.684C324.569 256.648 324.569 245.64 324.569 234.646C323.891 234.889 323.214 235.133 322.537 235.368C322.537 246.383 322.537 257.405 322.537 268.443Z" fill="#D99251"/>
<path d="M322.537 235.368C323.214 235.133 323.891 234.889 324.569 234.646C324.569 223.651 324.569 212.669 324.569 201.684C323.891 201.901 323.214 202.119 322.537 202.335C322.537 213.345 322.537 224.353 322.537 235.368Z" fill="#D99251"/>
<path d="M324.569 267.684C324.569 245.612 324.569 223.654 324.569 201.684C325.246 201.467 325.923 201.25 326.601 201.033C326.601 222.954 326.601 244.857 326.601 266.926C325.923 267.178 325.246 267.431 324.569 267.684Z" fill="#D99251"/>
<path d="M326.601 266.926C357.049 255.573 387.497 244.436 417.945 233.062C417.945 212.603 417.945 192.142 417.945 171.682C387.497 181.428 357.049 191.296 326.601 201.033C326.601 222.954 326.601 244.857 326.601 266.926Z" fill="#D99251"/>
<path d="M319.666 203.249C319.666 185.19 319.666 167.131 319.666 149.072C320.144 148.938 320.623 148.804 321.101 148.67C321.101 166.727 321.101 184.761 321.101 202.792C320.623 202.944 320.144 203.096 319.666 203.249Z" fill="#D99251"/>
<path d="M321.101 202.792C321.58 202.641 322.058 202.489 322.537 202.335C322.537 193.334 322.537 184.33 322.537 175.321C322.058 175.465 321.58 175.603 321.101 175.741C321.101 184.761 321.101 193.777 321.101 202.792Z" fill="#D99251"/>
<path d="M321.101 175.741C321.58 175.603 322.058 175.465 322.537 175.321C322.537 166.311 322.537 157.294 322.537 148.266C322.058 148.401 321.58 148.535 321.101 148.67C321.101 157.699 321.101 166.721 321.101 175.741Z" fill="#D99251"/>
<path d="M322.537 202.335C323.214 202.119 323.891 201.901 324.569 201.684C324.569 192.702 324.569 183.718 324.569 174.723C323.891 174.92 323.214 175.117 322.537 175.321C322.537 184.33 322.537 193.334 322.537 202.335Z" fill="#D99251"/>
<path d="M322.537 175.321C323.214 175.117 323.891 174.92 324.569 174.723C324.569 165.728 324.569 156.723 324.569 147.696C323.891 147.886 323.214 148.076 322.537 148.266C322.537 157.294 322.537 166.311 322.537 175.321Z" fill="#D99251"/>
<path d="M324.569 201.684C324.569 183.72 324.569 165.748 324.569 147.696C325.246 147.506 325.923 147.316 326.601 147.127C326.601 165.174 326.601 183.11 326.601 201.033C325.923 201.25 325.246 201.467 324.569 201.684Z" fill="#D99251"/>
<path d="M326.601 201.033C357.049 191.296 387.497 181.428 417.945 171.682C417.945 154.954 417.945 138.226 417.945 121.499C387.497 130.041 357.049 138.584 326.601 147.127C326.601 165.174 326.601 183.11 326.601 201.033Z" fill="#D99251"/>
<path d="M319.659 121.14H221.385V139.679L319.659 167.851V121.14Z" fill="url(#paint0_linear)"/>
<path d="M319.645 121.499H417.883V140.038L319.645 169.287V121.499Z" fill="url(#paint1_linear)"/>
<path d="M219.33 131.524L227.216 133.737V130.518L219.33 128.311V131.524Z" fill="#BA7836"/>
<path d="M227.216 133.737L306.967 156.111V152.657L227.216 130.518V133.737Z" fill="#BA7836"/>
<path d="M306.967 156.111L319.665 159.674V156.206L306.967 152.657V156.111Z" fill="#BA7836"/>
<path d="M219.33 128.311L227.216 130.518V110.813L219.33 109.152V128.311Z" fill="#BA7836"/>
<path d="M227.216 130.518L306.967 152.657V127.606L227.216 110.813V130.518Z" fill="#BA7836"/>
<path d="M306.967 152.657L319.665 156.206V130.28L306.967 127.606V152.657Z" fill="#BA7836"/>
<path d="M319.666 159.674L322.596 158.852V155.869L319.666 156.69V159.674Z" fill="#E09854"/>
<path d="M322.596 158.852L326.747 157.688V154.707L322.596 155.869V158.852Z" fill="#E09854"/>
<path d="M326.747 157.688L420 131.524V128.759L326.747 154.707V157.688Z" fill="#E09854"/>
<path d="M319.666 156.69C319.666 156.69 320.399 156.484 321.131 156.279C321.131 156.279 321.131 152.656 321.131 149.032C320.399 149.222 319.666 149.412 319.666 149.412C319.666 153.051 319.666 156.69 319.666 156.69Z" fill="#E09854"/>
<path d="M319.666 149.412C319.666 149.412 320.399 149.222 321.131 149.032C321.131 145.408 321.131 141.784 321.131 141.784C320.399 141.959 319.666 142.135 319.666 142.135C319.666 142.135 319.666 145.774 319.666 149.412Z" fill="#E09854"/>
<path d="M321.131 156.279C321.864 156.074 322.596 155.869 322.596 155.869C322.596 155.869 322.596 152.26 322.596 148.651C322.596 148.651 321.864 148.841 321.131 149.032C321.131 152.656 321.131 156.279 321.131 156.279Z" fill="#E09854"/>
<path d="M321.131 149.032C321.864 148.841 322.596 148.651 322.596 148.651C322.596 145.042 322.596 141.433 322.596 141.433C322.596 141.433 321.864 141.608 321.131 141.784C321.131 141.784 321.131 145.408 321.131 149.032Z" fill="#E09854"/>
<path d="M322.596 155.869C322.596 155.869 323.634 155.578 324.671 155.288C324.671 155.288 324.671 151.7 324.671 148.111C323.634 148.381 322.596 148.651 322.596 148.651C322.596 152.26 322.596 155.869 322.596 155.869Z" fill="#E09854"/>
<path d="M322.596 148.651C322.596 148.651 323.634 148.381 324.671 148.111C324.671 144.523 324.671 140.935 324.671 140.935C323.634 141.184 322.596 141.433 322.596 141.433C322.596 141.433 322.596 145.042 322.596 148.651Z" fill="#E09854"/>
<path d="M324.671 155.288V140.935C325.709 140.685 326.747 140.436 326.747 140.436L326.747 154.707C326.747 154.707 325.709 154.997 324.671 155.288Z" fill="#E09854"/>
<path d="M326.747 154.707L420 128.759V117.947L326.747 140.436L326.747 154.707Z" fill="#E09854"/>
<path d="M319.666 142.135C319.666 142.135 320.399 141.959 321.131 141.784C321.131 141.784 321.131 138.831 321.131 135.878C320.399 136.043 319.666 136.207 319.666 136.207C319.666 139.171 319.666 142.135 319.666 142.135Z" fill="#E09854"/>
<path d="M319.666 136.207C319.666 136.207 320.399 136.043 321.131 135.878C321.131 132.925 321.131 129.971 321.131 129.971C320.399 130.126 319.666 130.28 319.666 130.28C319.666 130.28 319.666 133.243 319.666 136.207Z" fill="#E09854"/>
<path d="M321.131 141.784C321.864 141.608 322.596 141.433 322.596 141.433C322.596 141.433 322.596 138.491 322.596 135.548C322.596 135.548 321.864 135.713 321.131 135.878C321.131 138.831 321.131 141.784 321.131 141.784Z" fill="#E09854"/>
<path d="M321.131 135.878C321.864 135.713 322.596 135.548 322.596 135.548C322.596 132.605 322.596 129.663 322.596 129.663C322.596 129.663 321.864 129.817 321.131 129.971C321.131 129.971 321.131 132.925 321.131 135.878Z" fill="#E09854"/>
<path d="M322.596 141.433C322.596 141.433 323.634 141.184 324.671 140.935C324.671 140.935 324.671 138.007 324.671 135.08C323.634 135.314 322.596 135.548 322.596 135.548C322.596 138.491 322.596 141.433 322.596 141.433Z" fill="#E09854"/>
<path d="M322.596 135.548C322.596 135.548 323.634 135.314 324.671 135.08C324.671 132.153 324.671 129.225 324.671 129.225C323.634 129.444 322.596 129.663 322.596 129.663C322.596 129.663 322.596 132.605 322.596 135.548Z" fill="#E09854"/>
<path d="M324.671 140.935V129.225C325.709 129.006 326.747 128.788 326.747 128.788V140.436C326.747 140.436 325.709 140.685 324.671 140.935Z" fill="#E09854"/>
<path d="M326.747 140.436L420 117.947V109.152L326.747 128.788V140.436Z" fill="#E09854"/>
<path d="M224.999 110.71C256.555 119.381 288.109 128.052 319.666 136.725C319.663 131.241 319.664 125.775 319.664 120.313C287.592 115.845 255.122 114.642 223.051 110.174C223.701 110.352 224.35 110.531 224.999 110.71Z" fill="#D8945C"/>
<path d="M319.666 136.725C319.757 136.7 319.85 136.674 319.941 136.649C319.941 131.181 319.944 125.73 319.947 120.284C319.853 120.296 319.757 120.301 319.664 120.313C319.664 125.775 319.663 131.241 319.666 136.725Z" fill="#D8945C"/>
<path d="M319.941 136.649C351.405 128.002 382.868 119.356 414.331 110.71C414.98 110.531 415.629 110.352 416.279 110.174C384.301 114.629 351.925 115.829 319.947 120.284C319.944 125.73 319.941 131.181 319.941 136.649Z" fill="#D8945C"/>
<path d="M223.051 110.174C239.086 112.408 255.222 113.825 271.357 115.243C271.048 112.551 270.738 109.86 270.428 107.167C253.999 108.134 237.569 109.101 221.19 109.663C221.811 109.833 222.431 110.004 223.051 110.174Z" fill="#D8945C"/>
<path d="M221.19 109.663C237.569 109.101 253.999 108.134 270.428 107.167C270.118 104.474 269.808 101.778 269.497 99.0757C252.775 102.434 236.052 105.793 219.33 109.152C219.95 109.322 220.57 109.493 221.19 109.663Z" fill="#D8945C"/>
<path d="M271.357 115.243C287.493 116.661 303.628 118.079 319.664 120.313C319.665 115.098 319.666 109.887 319.667 104.671C303.287 105.233 286.857 106.2 270.428 107.167C270.738 109.86 271.048 112.551 271.357 115.243Z" fill="#D8945C"/>
<path d="M270.428 107.167C286.857 106.2 303.287 105.233 319.667 104.671C319.667 99.4553 319.667 94.2347 319.665 89C302.942 92.3586 286.22 95.717 269.497 99.0757C269.808 101.778 270.118 104.474 270.428 107.167Z" fill="#D8945C"/>
<path d="M319.664 120.313C319.757 120.301 319.853 120.296 319.947 120.284C319.949 115.083 319.952 109.887 319.954 104.686C319.858 104.682 319.761 104.675 319.667 104.671C319.666 109.887 319.665 115.098 319.664 120.313Z" fill="#D8945C"/>
<path d="M319.667 104.671C319.761 104.675 319.858 104.682 319.954 104.686C319.956 99.4845 319.958 94.2784 319.958 89.0582C319.861 89.0388 319.763 89.0194 319.665 89C319.667 94.2347 319.667 99.4553 319.667 104.671Z" fill="#D8945C"/>
<path d="M319.947 120.284C335.936 118.056 352.024 116.643 368.113 115.229C368.424 112.544 368.736 109.86 369.047 107.174C352.666 106.21 336.285 105.246 319.954 104.686C319.952 109.887 319.949 115.083 319.947 120.284Z" fill="#D8945C"/>
<path d="M319.954 104.686C336.285 105.246 352.666 106.21 369.047 107.174C369.359 104.489 369.67 101.8 369.98 99.1048C353.306 95.756 336.632 92.407 319.958 89.0582C319.958 94.2784 319.956 99.4845 319.954 104.686Z" fill="#D8945C"/>
<path d="M368.113 115.229C384.202 113.815 400.29 112.401 416.279 110.174C416.899 110.004 417.519 109.833 418.139 109.663C401.808 109.102 385.428 108.139 369.047 107.174C368.736 109.86 368.424 112.544 368.113 115.229Z" fill="#D8945C"/>
<path d="M369.047 107.174C385.428 108.139 401.808 109.102 418.139 109.663C418.76 109.493 419.38 109.322 420 109.152C403.327 105.803 386.653 102.454 369.98 99.1048C369.67 101.8 369.359 104.489 369.047 107.174Z" fill="#D8945C"/>
<path d="M361.18 125.299V166.286L363.171 163.695L364.764 165.289L365.76 163.297L367.553 164.691L369.544 163.297L372.135 163.895L372.732 162.301L375.321 163.497V121.389L361.18 125.299Z" fill="#E6AC63"/>
<path d="M375.321 121.626L281.181 97.0673L265.658 100.189L361.179 125.61V125.657L375.321 121.748V121.626Z" fill="#F2BA6B"/>
<path d="M126.508 242.999C128.396 243.705 130.287 244.41 132.175 245.118C132.175 244.09 132.175 243.063 132.175 242.035C130.287 241.332 128.396 240.629 126.508 239.923C126.508 240.948 126.508 241.973 126.508 242.999Z" fill="#B27434"/>
<path d="M132.175 245.118C151.277 252.258 170.38 259.399 189.483 266.539C189.483 265.437 189.483 264.335 189.483 263.232C170.38 256.137 151.277 249.145 132.175 242.035C132.175 243.063 132.175 244.09 132.175 245.118Z" fill="#B27434"/>
<path d="M189.483 266.539C192.523 267.677 195.565 268.814 198.607 269.951C198.607 268.844 198.607 267.737 198.607 266.63C195.565 265.494 192.523 264.363 189.483 263.232C189.483 264.335 189.483 265.437 189.483 266.539Z" fill="#B27434"/>
<path d="M126.508 239.923C128.396 240.629 130.287 241.332 132.175 242.035C132.175 214.86 132.175 185.167 132.175 185.167L126.508 183.578C126.508 183.578 126.508 212.784 126.508 239.923Z" fill="#B27434"/>
<path d="M132.147 242.068C151.25 249.177 170.38 256.137 189.483 263.232C189.483 234.043 189.455 201.279 189.455 201.279L132.147 185.2C132.147 185.2 132.147 214.893 132.147 242.068Z" fill="#B27434"/>
<path d="M189.483 263.232C192.523 264.363 195.565 265.494 198.607 266.63C198.607 237.331 198.607 203.806 198.607 203.806L189.455 201.279C189.455 201.279 189.483 234.043 189.483 263.232Z" fill="#B27434"/>
<path d="M198.605 269.951C199.307 269.689 200.009 269.426 200.71 269.164C200.71 268.211 200.71 267.26 200.71 266.307C200.009 266.569 199.307 266.831 198.605 267.093C198.605 268.046 198.605 268.999 198.605 269.951Z" fill="#D99251"/>
<path d="M200.71 269.164C201.705 268.792 202.699 268.421 203.693 268.049C203.693 267.097 203.693 266.146 203.693 265.195C202.699 265.565 201.705 265.937 200.71 266.307C200.71 267.26 200.71 268.211 200.71 269.164Z" fill="#D99251"/>
<path d="M203.693 268.049C226.031 259.699 248.368 251.349 270.705 242.999C270.705 242.117 270.705 241.234 270.705 240.352C248.368 248.696 226.031 256.865 203.693 265.195C203.693 266.146 203.693 267.097 203.693 268.049Z" fill="#D99251"/>
<path d="M198.605 267.093C198.605 250.89 198.605 243.551 198.605 243.551C198.605 243.551 199.132 243.383 199.658 243.215C199.658 243.215 199.658 250.5 199.658 266.7C199.307 266.831 198.956 266.962 198.605 267.093Z" fill="#D99251"/>
<path d="M199.658 266.7C200.009 266.569 200.36 266.438 200.71 266.307C200.71 258.209 200.71 252.353 200.71 248.52C200.535 248.586 200.096 248.734 199.658 248.883C199.658 252.729 199.658 258.6 199.658 266.7Z" fill="#D99251"/>
<path d="M199.658 248.883C200.096 248.734 200.535 248.586 200.71 248.52C200.71 244.688 200.71 242.88 200.71 242.88C200.71 242.88 200.184 243.048 199.658 243.215C199.658 243.215 199.658 245.037 199.658 248.883Z" fill="#D99251"/>
<path d="M200.71 266.307C201.208 266.122 201.705 265.937 202.202 265.751C202.202 257.655 202.202 251.818 202.202 248.005C201.58 248.216 200.959 248.428 200.71 248.52C200.71 252.353 200.71 258.209 200.71 266.307Z" fill="#D99251"/>
<path d="M200.71 248.52C200.959 248.428 201.58 248.216 202.202 248.005C202.202 244.192 202.202 242.403 202.202 242.403C201.456 242.642 200.71 242.88 200.71 242.88C200.71 242.88 200.71 244.688 200.71 248.52Z" fill="#D99251"/>
<path d="M202.202 265.751C202.202 249.558 202.202 242.403 202.202 242.403C202.948 242.165 203.693 241.926 203.693 241.926C203.693 241.926 203.693 249.005 203.693 265.195C203.196 265.38 202.699 265.566 202.202 265.751Z" fill="#D99251"/>
<path d="M203.693 265.195C226.031 256.865 248.368 248.696 270.705 240.352C270.705 225.342 270.705 220.393 270.705 220.393L203.693 241.926C203.693 241.926 203.693 249.005 203.693 265.195Z" fill="#D99251"/>
<path d="M198.605 243.551V203.807C198.605 203.807 199.132 203.659 199.658 203.511V243.215C199.132 243.383 198.605 243.551 198.605 243.551Z" fill="#D99251"/>
<path d="M199.658 243.215C200.184 243.048 200.71 242.88 200.71 242.88C200.71 242.88 200.71 232.964 200.71 223.048C200.71 223.048 200.184 223.206 199.658 223.363C199.658 233.29 199.658 243.215 199.658 243.215Z" fill="#D99251"/>
<path d="M199.658 223.363C200.184 223.206 200.71 223.048 200.71 223.048C200.71 213.132 200.71 203.216 200.71 203.216C200.71 203.216 200.184 203.363 199.658 203.511C199.658 203.511 199.658 213.437 199.658 223.363Z" fill="#D99251"/>
<path d="M200.71 242.88C200.71 242.88 201.456 242.642 202.202 242.403C202.202 242.403 202.202 232.501 202.202 222.6C201.456 222.824 200.71 223.048 200.71 223.048C200.71 232.964 200.71 242.88 200.71 242.88Z" fill="#D99251"/>
<path d="M200.71 223.048C200.71 223.048 201.456 222.824 202.202 222.6C202.202 212.699 202.202 202.797 202.202 202.797C201.456 203.006 200.71 203.216 200.71 203.216C200.71 203.216 200.71 213.132 200.71 223.048Z" fill="#D99251"/>
<path d="M202.202 242.403V202.797C202.948 202.588 203.693 202.378 203.693 202.378V241.926C203.693 241.926 202.948 242.165 202.202 242.403Z" fill="#D99251"/>
<path d="M203.693 241.926L270.705 220.393V183.579L203.693 202.378V241.926Z" fill="#D99251"/>
<path d="M198.603 183.64H126.508V197.24L198.603 219.111V183.64Z" fill="url(#paint2_linear)"/>
<path d="M198.592 183.578H270.661V197.178L198.592 219.112V183.578Z" fill="url(#paint3_linear)"/>
<path d="M125 191.195L130.785 192.819V190.458L125 188.838V191.195Z" fill="#BA7836"/>
<path d="M130.785 192.819L189.291 209.234V206.699L130.785 190.458V192.819Z" fill="#BA7836"/>
<path d="M189.291 209.234L198.607 211.846V209.303L189.291 206.699V209.234Z" fill="#BA7836"/>
<path d="M125 188.838L130.785 190.458V176.001L125 174.784V188.838Z" fill="#BA7836"/>
<path d="M130.785 190.458L189.291 206.699V188.321L130.785 176.001V190.458Z" fill="#BA7836"/>
<path d="M189.291 206.699L198.607 209.303V190.283L189.291 188.321V206.699Z" fill="#BA7836"/>
<path d="M198.605 211.846L200.755 211.243V209.055L198.605 209.658V211.846Z" fill="#E09854"/>
<path d="M200.755 211.243L203.8 210.389V208.202L200.755 209.055V211.243Z" fill="#E09854"/>
<path d="M203.8 210.389L272.212 191.195V189.167L203.8 208.202V210.389Z" fill="#E09854"/>
<path d="M198.605 209.658C198.605 209.658 199.143 209.507 199.68 209.356C199.68 209.356 199.68 206.698 199.68 204.039C199.143 204.179 198.605 204.318 198.605 204.318C198.605 206.988 198.605 209.658 198.605 209.658Z" fill="#E09854"/>
<path d="M198.605 204.318C198.605 204.318 199.143 204.179 199.68 204.039C199.68 201.381 199.68 198.723 199.68 198.723C199.143 198.851 198.605 198.979 198.605 198.979C198.605 198.979 198.605 201.649 198.605 204.318Z" fill="#E09854"/>
<path d="M199.68 209.356C200.217 209.206 200.755 209.055 200.755 209.055C200.755 209.055 200.755 206.407 200.755 203.76C200.755 203.76 200.217 203.9 199.68 204.039C199.68 206.698 199.68 209.356 199.68 209.356Z" fill="#E09854"/>
<path d="M199.68 204.039C200.217 203.9 200.755 203.76 200.755 203.76C200.755 201.113 200.755 198.466 200.755 198.466C200.755 198.466 200.217 198.594 199.68 198.723C199.68 198.723 199.68 201.381 199.68 204.039Z" fill="#E09854"/>
<path d="M200.755 209.055C200.755 209.055 201.516 208.841 202.277 208.628C202.277 208.628 202.277 205.996 202.277 203.364C201.516 203.562 200.755 203.76 200.755 203.76C200.755 206.407 200.755 209.055 200.755 209.055Z" fill="#E09854"/>
<path d="M200.755 203.76C200.755 203.76 201.516 203.562 202.277 203.364C202.277 200.732 202.277 198.1 202.277 198.1C201.516 198.283 200.755 198.466 200.755 198.466C200.755 198.466 200.755 201.113 200.755 203.76Z" fill="#E09854"/>
<path d="M202.277 208.628V198.1C203.039 197.917 203.8 197.734 203.8 197.734V208.202C203.8 208.202 203.039 208.415 202.277 208.628Z" fill="#E09854"/>
<path d="M203.8 208.202L272.212 189.167V181.235L203.8 197.734V208.202Z" fill="#E09854"/>
<path d="M198.605 198.979C198.605 198.979 199.143 198.851 199.68 198.723C199.68 198.723 199.68 196.556 199.68 194.389C199.143 194.51 198.605 194.631 198.605 194.631C198.605 196.805 198.605 198.979 198.605 198.979Z" fill="#E09854"/>
<path d="M198.605 194.631C198.605 194.631 199.143 194.51 199.68 194.389C199.68 192.223 199.68 190.056 199.68 190.056C199.143 190.169 198.605 190.283 198.605 190.283C198.605 190.283 198.605 192.457 198.605 194.631Z" fill="#E09854"/>
<path d="M199.68 198.723C200.217 198.594 200.755 198.466 200.755 198.466C200.755 198.466 200.755 196.307 200.755 194.148C200.755 194.148 200.217 194.268 199.68 194.389C199.68 196.556 199.68 198.723 199.68 198.723Z" fill="#E09854"/>
<path d="M199.68 194.389C200.217 194.268 200.755 194.148 200.755 194.148C200.755 191.988 200.755 189.83 200.755 189.83C200.755 189.83 200.217 189.943 199.68 190.056C199.68 190.056 199.68 192.223 199.68 194.389Z" fill="#E09854"/>
<path d="M200.755 198.466C200.755 198.466 201.516 198.283 202.277 198.1C202.277 198.1 202.277 195.952 202.277 193.804C201.516 193.976 200.755 194.148 200.755 194.148C200.755 196.307 200.755 198.466 200.755 198.466Z" fill="#E09854"/>
<path d="M200.755 194.148C200.755 194.148 201.516 193.976 202.277 193.804C202.277 191.657 202.277 189.509 202.277 189.509C201.516 189.669 200.755 189.83 200.755 189.83C200.755 189.83 200.755 191.988 200.755 194.148Z" fill="#E09854"/>
<path d="M202.277 198.1V189.509C203.039 189.349 203.8 189.189 203.8 189.189V197.734C203.8 197.734 203.039 197.917 202.277 198.1Z" fill="#E09854"/>
<path d="M203.8 197.734L272.212 181.235V174.784L203.8 189.189V197.734Z" fill="#E09854"/>
<path d="M129.159 175.926C129.159 175.926 175.322 188.612 198.605 195.01C198.605 194.987 198.605 182.994 198.605 182.971C174.939 179.675 127.729 175.534 127.729 175.534L129.159 175.926Z" fill="#D8945C"/>
<path d="M198.605 195.01C198.673 194.992 198.809 194.955 198.809 194.955L198.813 182.95C198.813 182.95 198.675 182.963 198.605 182.971C198.605 182.994 198.605 194.987 198.605 195.01Z" fill="#D8945C"/>
<path d="M198.809 194.955L269.483 175.534L198.813 182.95L198.809 194.955Z" fill="#D8945C"/>
<path d="M127.729 175.534C127.729 175.534 139.532 176.569 154.292 178.016C154.292 178.006 153.856 175.819 153.421 173.633C138.382 174.448 126.364 175.159 126.364 175.159C127.047 175.346 127.729 175.534 127.729 175.534Z" fill="#D8945C"/>
<path d="M126.364 175.159C126.364 175.159 138.382 174.448 153.421 173.633C152.984 171.447 152.548 169.261 152.548 169.25C137.232 172.327 125 174.784 125 174.784C125 174.784 125.682 174.971 126.364 175.159Z" fill="#D8945C"/>
<path d="M154.292 178.016C169.053 179.463 186.772 181.323 198.605 182.971C198.605 182.949 198.605 177.217 198.605 171.485C186.519 171.9 168.459 172.819 153.421 173.633C153.856 175.819 154.292 178.006 154.292 178.016Z" fill="#D8945C"/>
<path d="M153.421 173.633C168.459 172.819 186.519 171.9 198.605 171.485C198.605 165.753 198.605 160.021 198.605 160C186.266 162.478 167.865 166.174 152.548 169.25C152.548 169.261 152.984 171.447 153.421 173.633Z" fill="#D8945C"/>
<path d="M198.605 182.971C198.675 182.963 198.813 182.95 198.813 182.95C198.813 182.95 198.815 177.223 198.817 171.497C198.817 171.497 198.676 171.488 198.605 171.485C198.605 177.217 198.605 182.949 198.605 182.971Z" fill="#D8945C"/>
<path d="M198.605 171.485C198.676 171.488 198.817 171.497 198.817 171.497C198.819 165.77 198.822 160.043 198.822 160.043C198.822 160.043 198.677 160.014 198.605 160C198.605 160.021 198.605 165.753 198.605 171.485Z" fill="#D8945C"/>
<path d="M198.813 182.95C198.813 182.95 216.481 181.096 234.148 179.242C234.148 179.242 234.49 176.285 234.833 173.328C216.825 172.412 198.817 171.497 198.817 171.497C198.816 177.223 198.813 182.95 198.813 182.95Z" fill="#D8945C"/>
<path d="M198.817 171.497C198.817 171.497 216.825 172.412 234.833 173.328C235.175 170.37 235.517 167.413 235.517 167.413C217.17 163.728 198.822 160.043 198.822 160.043C198.822 160.043 198.82 165.77 198.817 171.497Z" fill="#D8945C"/>
<path d="M234.148 179.242C251.815 177.388 269.483 175.534 269.483 175.534C269.483 175.534 270.166 175.346 270.848 175.159C270.848 175.159 252.84 174.243 234.833 173.328C234.49 176.285 234.148 179.242 234.148 179.242Z" fill="#D8945C"/>
<path d="M234.833 173.328C252.84 174.243 270.848 175.159 270.848 175.159C271.531 174.971 272.213 174.784 272.213 174.784C272.213 174.784 253.865 171.098 235.517 167.413C235.517 167.413 235.175 170.37 234.833 173.328Z" fill="#D8945C"/>
<path d="M229.061 186.629V216.697L230.522 214.797L231.691 215.966L232.422 214.504L233.737 215.528L235.198 214.504L237.098 214.943L237.536 213.774L239.436 214.65V183.761L229.061 186.629Z" fill="#E6AC63"/>
<path d="M239.435 183.671L170.372 165.655L158.984 167.944L229.059 186.594V186.629L239.435 183.761V183.671Z" fill="#F2BA6B"/>
</g>
<defs>
<linearGradient id="paint0_linear" x1="269.84" y1="148.967" x2="271.782" y2="141.946" gradientUnits="userSpaceOnUse">
<stop stop-color="#B27434"/>
<stop offset="1" stop-color="#5B3A18"/>
</linearGradient>
<linearGradient id="paint1_linear" x1="369.447" y1="149.331" x2="367.505" y2="142.309" gradientUnits="userSpaceOnUse">
<stop stop-color="#D99251"/>
<stop offset="1" stop-color="#8E5117"/>
</linearGradient>
<linearGradient id="paint2_linear" x1="162.055" y1="203.991" x2="163.48" y2="198.84" gradientUnits="userSpaceOnUse">
<stop stop-color="#B27434"/>
<stop offset="1" stop-color="#452D14"/>
</linearGradient>
<linearGradient id="paint3_linear" x1="235.127" y1="203.995" x2="233.703" y2="198.844" gradientUnits="userSpaceOnUse">
<stop stop-color="#D99251"/>
<stop offset="1" stop-color="#5F3E20"/>
</linearGradient>
</defs>
</svg>
