<svg width="309" height="321" viewBox="0 0 309 321" fill="none" xmlns="http://www.w3.org/2000/svg">
<g style="mix-blend-mode:overlay">
<path d="M96.8535 324.534C127.49 337.224 161.579 338.899 193.312 329.273C225.045 319.647 252.459 299.315 270.882 271.743C289.305 244.171 297.598 211.064 294.348 178.062C291.097 145.061 276.505 114.208 253.057 90.7596L244.669 87.4888L152 181V50.5L143 47" stroke="url(#paint0_linear)" stroke-width="3"/>
</g>
<g style="mix-blend-mode:overlay">
<mask id="path-2-inside-1" fill="white">
<path d="M143.333 45.4902C110.172 45.4902 78.0372 56.9883 52.4035 78.0253C26.7698 99.0624 9.22347 128.337 2.75411 160.86C-3.71526 193.384 1.29266 227.145 16.9246 256.39C32.5565 285.635 57.8452 308.556 88.4819 321.246C119.119 333.936 153.208 335.611 184.94 325.985C216.673 316.358 244.087 296.027 262.51 268.455C280.933 240.883 289.226 207.775 285.976 174.774C282.726 141.773 268.133 110.92 244.685 87.4715L143.333 188.823V45.4902Z"/>
</mask>
<path d="M143.333 45.4902C110.172 45.4902 78.0372 56.9883 52.4035 78.0253C26.7698 99.0624 9.22347 128.337 2.75411 160.86C-3.71526 193.384 1.29266 227.145 16.9246 256.39C32.5565 285.635 57.8452 308.556 88.4819 321.246C119.119 333.936 153.208 335.611 184.94 325.985C216.673 316.358 244.087 296.027 262.51 268.455C280.933 240.883 289.226 207.775 285.976 174.774C282.726 141.773 268.133 110.92 244.685 87.4715L143.333 188.823V45.4902Z" stroke="url(#paint1_linear)" stroke-width="6" mask="url(#path-2-inside-1)"/>
</g>
<path d="M165.334 0C184.157 2.24459e-07 210.268 4.20742 227.658 11.4106C245.048 18.6138 260.849 29.1716 274.159 42.4813L172.807 143.833H165.334V0Z" fill="#ED8325"/>
<path d="M165.333 0.5C184.156 0.5 202.794 4.20742 220.184 11.4106C237.574 18.6138 253.375 29.1716 266.685 42.4813L165.333 143.833V0.5Z" fill="url(#paint2_linear)"/>
<defs>
<linearGradient id="paint0_linear" x1="203.202" y1="61.3738" x2="97.0176" y2="316.631" gradientUnits="userSpaceOnUse">
<stop stop-color="#F9D56A"/>
<stop offset="1" stop-color="#CE7C00"/>
</linearGradient>
<linearGradient id="paint1_linear" x1="194.831" y1="58.0857" x2="88.6465" y2="313.343" gradientUnits="userSpaceOnUse">
<stop stop-color="#FFE38F"/>
<stop offset="1" stop-color="#EDC037"/>
</linearGradient>
<linearGradient id="paint2_linear" x1="271.62" y1="-14.2936" x2="172.373" y2="317.163" gradientUnits="userSpaceOnUse">
<stop offset="0.0262134" stop-color="#FFBC81"/>
<stop offset="1" stop-color="#EC6F00"/>
</linearGradient>
</defs>
</svg>
