<svg width="240" height="26" viewBox="0 0 240 26" fill="none" xmlns="http://www.w3.org/2000/svg">
<path d="M31.8456 0.589976H36.4776V25.369H31.8456V0.589976Z" fill="white"/>
<path d="M240 25.369L234.789 25.3691L224.596 5.26884L227.178 0L240 25.369Z" fill="white"/>
<path d="M224.656 21.2679L227.043 16.5472L233.112 16.5194L236.526 21.2711L224.656 21.2679Z" fill="white"/>
<path d="M222.744 8.7883L214.234 25.369H219.445L225.294 13.8668L222.744 8.7883Z" fill="white"/>
<path d="M5.28382 0.375354L0 0.356927L12.9641 26L15.5461 20.7312L12.6911 15.0271L5.28382 0.375354Z" fill="white"/>
<path d="M17.391 17.1978L25.9084 0.350298H20.8444L14.8484 12.1339L17.391 17.1978Z" fill="white"/>
<path d="M61.3751 0.589976H66.0072V25.369H61.3751V0.589976Z" fill="white"/>
<path d="M86.2725 0.589976H90.9046V25.369H86.2725V0.589976Z" fill="white"/>
<path d="M107.117 0.589976H111.749V25.369H107.117V0.589976Z" fill="white"/>
<path d="M142.436 0.589976H147.069V25.369H142.436V0.589976Z" fill="white"/>
<path d="M131.435 20.6492H136.067V25.369H131.435V20.6492Z" fill="white"/>
<path d="M93.7996 20.6492H100.748V25.369H93.7996V20.6492Z" fill="white"/>
<path d="M68.9022 0.589976H79.3244V5.3098H68.9022V0.589976Z" fill="white"/>
<path d="M114.644 0.589976H125.066V5.3098H114.644V0.589976Z" fill="white"/>
<path d="M68.9022 10.6196H79.3244V15.3394H68.9022V10.6196Z" fill="white"/>
<path d="M114.644 10.6196H125.066V15.3394H114.644V10.6196Z" fill="white"/>
<path d="M68.9022 20.6492H79.3244V25.369H68.9022V20.6492Z" fill="white"/>
<path d="M114.644 20.6492H125.066V25.369H114.644V20.6492Z" fill="white"/>
<path d="M171.387 25.3669L171.387 0.589976H166.755V14.1332L153.438 0.589976V11.4114L153.441 7.42361L171.387 25.3669Z" fill="white"/>
<path d="M153.438 11.5051V25.369H158.07V15.9194L153.438 11.5051Z" fill="white"/>
<path d="M179.493 20.6492H184.125V25.369H179.493V20.6492Z" fill="white"/>
<path d="M42.2677 0.589976H39.3727V5.3098H41.6887C45.8458 5.3098 49.2159 8.74365 49.2159 12.9795C49.2159 17.2154 45.8458 20.6492 41.6887 20.6492H39.3727V25.369H42.2677C48.6634 25.369 53.8479 20.0863 53.8479 13.5695V12.3895C53.8479 5.87269 48.6634 0.589976 42.2677 0.589976Z" fill="white"/>
<path d="M190.494 0.589976H195.126V16.2244C195.126 18.151 196.335 19.79 198.021 20.3974V25.5176C193.753 24.8124 190.494 21.0396 190.494 16.4913V0.589976Z" fill="white"/>
<path d="M200.338 25.5937C204.887 25.1485 208.444 21.2432 208.444 16.4913V0.589976H203.812V16.2244C203.812 18.3651 202.32 20.1507 200.338 20.5607V25.5937Z" fill="white"/>
</svg>
