<svg width="180" height="243" viewBox="0 0 180 243" fill="none" xmlns="http://www.w3.org/2000/svg">
<path d="M32.2285 226.109L78.6823 -42.5674L195.97 1.64041L153.14 263.458L32.2285 226.109Z" fill="#F2994A"/>
<path d="M195.974 1.64269L153.145 263.457L189.715 274.509L239.134 -5.59814L195.974 1.64269Z" fill="#F2994A"/>
<path d="M78.6855 -42.565L195.973 1.64258L239.132 -5.5983L116.903 -50.187L78.6855 -42.565Z" fill="white"/>
<path d="M124.479 -25.4155L75.7188 239.829L103.393 248.213L150.506 -15.8881L124.479 -25.4155Z" fill="#BE1E2D"/>
<path d="M235.168 29.0797C235.168 29.0797 237.474 48.8971 189.043 68.7145C140.613 88.5319 125.787 82.8154 125.787 82.8154L129.411 61.0924C129.411 61.0924 178.83 64.5223 224.625 16.1221C229.201 19.0947 232.88 23.6166 235.168 29.0797Z" fill="#BE1E2D"/>
<path d="M128.759 59.1851C128.759 59.1851 177.19 -22.368 225.62 3.92713C229.52 11.9225 232.721 20.3483 235.174 29.0791C231.398 23.9759 226.48 20.174 220.959 18.0902C215.438 16.0063 209.528 15.7209 203.876 17.2653C171.918 26.4114 148.856 54.612 128.43 81.6693L128.759 59.1851Z" fill="#ED1C24"/>
<path d="M237.15 96.5337C237.15 96.5337 230.561 114.827 179.824 103.012C129.087 91.1983 119.203 77.4787 119.203 77.4787L132.052 61.0913C132.052 61.0913 172.905 93.4849 233.526 79.003C236.273 84.2719 237.539 90.3971 237.15 96.5337Z" fill="#BE1E2D"/>
<path d="M132.382 59.1861C132.382 59.1861 210.134 18.0267 240.115 69.476C239.924 78.7143 238.931 87.9071 237.15 96.9156C236.17 90.3466 233.658 84.2121 229.884 79.1746C226.109 74.1372 221.217 70.3882 215.735 68.3327C184.437 57.2806 151.82 67.5705 122.498 78.6226L132.382 59.1861Z" fill="#ED1C24"/>
<path d="M10.8156 5.4522C10.8156 5.4522 6.2032 24.5071 52.3276 51.565C98.4521 78.623 113.607 74.812 113.607 74.812L112.289 52.7083C112.289 52.7083 62.8704 48.8973 22.6762 -5.59961C17.8481 -3.38661 13.7129 0.466579 10.8156 5.4522Z" fill="#BE1E2D"/>
<path d="M113.28 50.8021C113.28 50.8021 74.0745 -37.2313 23.0084 -17.7954C18.2745 -10.4089 14.1908 -2.49357 10.8184 5.83265C15.1086 1.31706 20.3898 -1.74682 26.0843 -3.02389C31.7787 -4.30095 37.6671 -3.74198 43.1054 -1.40817C73.7451 12.3113 93.842 43.5613 110.974 73.2868L113.28 50.8021Z" fill="#ED1C24"/>
<path d="M1.5918 72.525C1.5918 72.525 6.20423 91.5794 57.5999 87.3874C108.996 83.1955 120.527 70.6196 120.527 70.6196L109.654 52.7085C109.654 52.7085 65.5069 79.0035 6.86317 56.1383C3.72554 60.8657 1.88894 66.575 1.5918 72.525Z" fill="#BE1E2D"/>
<path d="M109.652 50.4228C109.652 50.4228 37.1709 -1.78756 1.58926 45.0874C0.800975 54.211 0.800975 63.4028 1.58926 72.5264C3.28935 66.1644 6.45832 60.4597 10.7546 56.0273C15.0508 51.595 20.3114 48.603 25.9693 47.374C58.2563 40.8953 89.555 56.1393 117.23 71.0021L109.652 50.4228Z" fill="#ED1C24"/>
<path d="M131.392 51.5635C133.607 62.2234 132.437 73.4491 128.097 83.1954C118.543 86.2442 106.023 78.241 106.023 78.241C107.321 67.9675 109.872 57.959 113.601 48.5146C119.172 51.4199 125.332 52.4755 131.392 51.5635Z" fill="#ED1C24"/>
<path d="M137.324 72.1436C137.324 72.1436 284.922 134.644 245.387 190.285C247.364 175.803 225.29 132.358 125.793 83.1955C127.44 72.9058 137.324 72.1436 137.324 72.1436Z" fill="#ED1C24"/>
<path d="M107.676 66.0459C107.676 66.0459 62.5402 60.7105 56.9394 126.641C51.3386 192.572 11.1445 205.148 11.1445 205.148L25.9702 207.054L24.3229 228.014C35.539 219.756 45.1416 208.881 52.5166 196.085C59.8916 183.288 64.8766 168.852 67.1527 153.699C75.7186 101.107 76.3775 80.9089 106.029 77.0979C106.358 77.8601 111.3 66.8081 107.676 66.0459Z" fill="#ED1C24"/>
<path d="M132.054 53.8518C132.054 53.8518 124.147 68.7149 126.453 83.5779C122.5 78.2425 124.806 58.8062 131.725 51.5652C132.384 50.803 132.054 53.8518 132.054 53.8518Z" fill="#BE1E2D"/>
<path d="M112.947 50.0391C109.354 58.8395 107.658 68.5163 108.005 78.2407C106.358 73.6675 108.335 58.0422 112.947 50.0391Z" fill="#BE1E2D"/>
<path d="M120.193 82.0513C120.193 82.0513 115.909 66.0454 120.851 55.7559C115.25 60.329 115.25 75.9538 120.193 82.0513Z" fill="#BE1E2D"/>
</svg>
