<svg width="53" height="40" viewBox="0 0 53 40" fill="none" xmlns="http://www.w3.org/2000/svg">
<g opacity="0.8">
<path d="M31.7893 37.8041C31.7893 39.0169 32.7724 40 33.9852 40C35.1979 40 36.181 39.0169 36.181 37.8041V2.19587C36.181 0.983128 35.1979 0 33.9852 0C32.7724 0 31.7893 0.983124 31.7893 2.19587V37.8041Z" fill="#333333"/>
<path d="M39.7366 31.0047C39.7366 32.2174 40.7197 33.2005 41.9325 33.2005C43.1452 33.2005 44.1283 32.2174 44.1283 31.0046V8.99639C44.1283 7.78364 43.1452 6.80052 41.9325 6.80052C40.7197 6.80052 39.7366 7.78365 39.7366 8.99639V31.0047Z" fill="#333333"/>
<path d="M47.6839 25.7043C47.6839 26.917 48.667 27.9002 49.8798 27.9002C51.0925 27.9002 52.0757 26.917 52.0757 25.7043V14.396C52.0757 13.1833 51.0925 12.2002 49.8798 12.2002C48.667 12.2002 47.6839 13.1833 47.6839 14.396V25.7043Z" fill="#333333"/>
<path d="M23.842 34.1045C23.842 35.3172 24.8251 36.3003 26.0378 36.3003C27.2506 36.3003 28.2337 35.3172 28.2337 34.1045V5.89622C28.2337 4.68347 27.2506 3.70035 26.0378 3.70035C24.8251 3.70035 23.842 4.68347 23.842 5.89622V34.1045Z" fill="#333333"/>
<path d="M15.8946 28.0038C15.8946 29.2165 16.8778 30.1997 18.0905 30.1997C19.3033 30.1997 20.2864 29.2165 20.2864 28.0038V11.9955C20.2864 10.7828 19.3033 9.79965 18.0905 9.79965C16.8778 9.79965 15.8946 10.7828 15.8946 11.9955V28.0038Z" fill="#333333"/>
<path d="M7.94732 34.0046C7.94732 35.2174 8.93045 36.2005 10.1432 36.2005C11.3559 36.2005 12.3391 35.2174 12.3391 34.0047V5.99639C12.3391 4.78364 11.3559 3.80052 10.1432 3.80052C8.93045 3.80052 7.94732 4.78364 7.94732 5.99639V34.0046Z" fill="#333333"/>
<path d="M0 23.6045C0 24.8172 0.983125 25.8003 2.19587 25.8003C3.40862 25.8003 4.39174 24.8172 4.39174 23.6045V16.3962C4.39174 15.1835 3.40862 14.2003 2.19587 14.2003C0.983125 14.2003 0 15.1835 0 16.3962V23.6045Z" fill="#333333"/>
</g>
</svg>
