<svg width="15" height="22" viewBox="0 0 15 22" fill="none" xmlns="http://www.w3.org/2000/svg">
<path fill-rule="evenodd" clip-rule="evenodd" d="M2 1C1.44772 1 1 1.44772 1 2V20C1 20.5523 1.44772 21 2 21H13C13.5523 21 14 20.5523 14 20V2C14 1.44772 13.5523 1 13 1H2ZM3 2C2.44772 2 2 2.44772 2 3V19C2 19.5523 2.44771 20 3 20H12C12.5523 20 13 19.5523 13 19V3C13 2.44772 12.5523 2 12 2H3Z" fill="#E0E0E0"/>
<path d="M4 18.5C4 18.2239 4.22386 18 4.5 18H10.5C10.7761 18 11 18.2239 11 18.5C11 18.7761 10.7761 19 10.5 19H4.5C4.22386 19 4 18.7761 4 18.5Z" fill="#E0E0E0"/>
<path d="M5 2H10C10 2.55228 9.55228 3 9 3H6C5.44772 3 5 2.55228 5 2Z" fill="#E0E0E0"/>
<path fill-rule="evenodd" clip-rule="evenodd" d="M2 1C1.44772 1 1 1.44772 1 2V20C1 20.5523 1.44772 21 2 21H13C13.5523 21 14 20.5523 14 20V2C14 1.44772 13.5523 1 13 1H2ZM3 2C2.44772 2 2 2.44772 2 3V19C2 19.5523 2.44771 20 3 20H12C12.5523 20 13 19.5523 13 19V3C13 2.44772 12.5523 2 12 2H3Z" stroke="#E0E0E0" stroke-width="0.4"/>
<path d="M4 18.5C4 18.2239 4.22386 18 4.5 18H10.5C10.7761 18 11 18.2239 11 18.5C11 18.7761 10.7761 19 10.5 19H4.5C4.22386 19 4 18.7761 4 18.5Z" stroke="#E0E0E0" stroke-width="0.4"/>
<path d="M5 2H10C10 2.55228 9.55228 3 9 3H6C5.44772 3 5 2.55228 5 2Z" stroke="#E0E0E0" stroke-width="0.4"/>
</svg>
